<?xml version="1.0"?>
<svg version="1.1" xmlns="http://www.w3.org/2000/svg" width="334" height="52" style=""><path fill="#466b85" d="M16.848,51.116l2.604,0l0-17.766q0-3.528,2.688-6.216t6.216-2.688q3.444,0,6.216,2.688q2.646,2.646,2.646,6.216l0,17.766l2.688,0l0-17.766q0-3.612,2.688-6.216q2.688-2.688,6.174-2.688q3.528,0,6.216,2.688t2.688,6.216l0,17.766l2.604,0l0-17.766q0-4.788-3.36-8.148t-8.148-3.36q-3.15,0-5.922,1.722q-2.814,1.764-4.032,4.494q-1.638-2.814-4.41-4.494q-2.898-1.722-6.048-1.722q-4.746,0-8.106,3.36q-3.402,3.402-3.402,8.148l0,17.766z M78.32928,21.8q-4.746,0-8.148,3.402q-3.444,3.444-3.444,8.19l0,6.342q0,4.662,3.444,8.106t8.148,3.444q4.746,0,8.19-3.444q3.402-3.402,3.402-8.106l0-6.342q0-4.788-3.402-8.19t-8.19-3.402z M87.31728,33.392l0,6.342q0,3.822-2.688,6.426q-2.646,2.52-6.3,2.52t-6.258-2.52q-2.688-2.604-2.688-6.426l0-6.342q0-3.528,2.688-6.3q2.688-2.688,6.258-2.688q3.528,0,6.3,2.688q2.688,2.772,2.688,6.3z M118.34856,21.632l-3.192,0l-8.946,22.218l-8.442-22.218l-2.646,0l11.088,29.568z M123.88584,51.242l2.646,0l0-29.526l-2.646,0l0,29.526z M135.55512,43.136q0-2.016,1.428-3.654q1.428-1.722,3.444-1.722l0.546,0l7.854,0l0-2.604l-7.854,0l-0.546,0q-2.142-0.42-3.507-1.848t-1.365-3.402q0-2.478,1.449-3.927t3.969-1.449l14.28,0l0-2.646l-14.28,0q-3.234,0-5.628,2.394q-2.394,2.31-2.394,5.628q0,2.1,0.798,3.822t2.352,2.478q-1.554,1.134-2.352,2.982t-0.798,3.948q0,3.276,2.394,5.586q2.436,2.436,5.628,2.436l14.28,0l0-2.772l-14.28,0q-2.52,0-3.969-1.428t-1.449-3.822z"/><path fill="#e01fb7" d="M192.4604,32.192q-1.332,0.54-2.286,0.54t-0.954-0.396q0-0.252,1.062-0.288t1.53-0.252q1.368-0.72,1.368-2.124q0-0.72-0.396-1.512q-1.152-2.052-5.58-2.052q-2.556,0-5.112,0.774t-4.284,2.376t-1.728,2.97q0,2.088,4.14,3.06l4.248,0.792q2.556,0.468,3.816,1.296q1.656,1.008,1.656,2.88q0,0.756-0.252,1.62q-1.152,3.888-5.94,5.94q-3.996,1.764-9.432,1.764q-1.548,0-2.7-0.144q1.152,0.648,3.024,1.116q0.144,0.036,0.144,0.144q0,0.324-0.756,0.324q-1.476,0-3.672-1.764q-2.988-0.468-4.464-1.656q-0.936-0.756-1.728-2.232t-0.792-2.664t0.468-1.98q1.08-1.908,2.736-1.908q1.26,0,1.476,2.124q0.504,4.104,0.684,4.68q0.54,1.764,1.836,2.988q1.512,0.324,3.276,0.324q3.888,0,7.632-1.548t5.4-4.392q0.684-1.116,0.684-1.98q0-1.692-2.988-2.628l-6.336-1.44q-1.944-0.468-3.114-1.548t-1.17-2.484q0-2.16,2.7-4.32q2.052-1.656,5.022-2.574t5.832-0.918t4.734,0.828q2.412,1.116,2.412,3.258t-2.196,3.006z M169.2764,48.248q-2.088-2.304-2.664-6.3q-0.324-2.268-0.612-2.268t-0.54,0.162t-0.504,0.702t-0.252,1.404q0,2.772,1.944,4.752q0.972,1.008,2.628,1.548z M201.89852,39.968q0,1.26-2.412,4.212q-2.844,3.492-4.86,3.492l-0.576,0q-0.936,0-1.476-0.972q-0.432-0.684-0.432-1.512q0-2.16,3.15-6.066t5.094-3.906q1.836,0,1.836,1.944q0,0.504-0.18,1.296q0.036,0.108,0.684,0.108t1.98-0.684q-0.036,0.612-2.844,1.764q0.036,0.144,0.036,0.324z M199.55852,38.096q-1.224,0-3.474,2.88t-2.25,4.248t0.864,1.368q1.548,0,3.924-2.808t2.376-4.032q-0.576-0.324-1.44-1.656z M214.28864,47.816q-0.18,0.036-0.774,0.036t-1.188-0.468t-0.594-1.206t0.27-1.638t0.378-1.368q-4.14,4.824-6.48,4.824q-1.476,0-1.62-1.836l0-0.252q0-1.548,1.872-4.176q-1.044,0.936-2.124,2.16q-0.144,0.144-0.36,0.144q-0.144,0-0.144-0.18t0.324-0.612l4.968-5.832q0.936-1.08,1.908-1.08t0.972,0.648q0,0.252-0.216,0.468q-1.44,1.332-3.618,4.428t-2.178,4.572q0,0.648,0.432,0.648q1.512,0,4.392-2.988q1.008-1.008,3.744-4.446t3.6-3.438q1.296,0,1.296,1.008q0,0.36-1.512,2.088q-2.052,2.484-3.132,4.05t-1.08,2.538t0.54,0.972q0.252,0,0.576-0.144q2.484-1.08,5.94-5.04q0.216-0.252,0.432-0.252t0.216,0.234t-0.252,0.522q-1.548,1.8-3.636,3.618t-2.952,1.998z M228.44276,47.78q-2.7,0-2.7-2.988q0-1.512,0.792-3.312t1.728-3.024q-0.18,0.036-0.468,0.036q-0.864,0-1.44-1.224l-2.664,3.456q-2.232,2.772-2.592,2.772q-0.18,0-0.18-0.144q0-0.36,0.612-1.044q3.132-3.636,4.428-6.156q0.828-3.132,2.088-3.132q0.828,0,0.828,0.72t-0.9,1.836l-0.864,1.152q0,0.756,1.116,0.756q0.648,0,1.44-0.468l0.936-0.576q0.072-0.036,0.36-0.036t0.612,0.36t0.216,0.648l-2.484,3.132q-2.304,2.952-2.304,4.662t1.584,1.71q1.656,0,4.068-1.764q1.44-1.044,2.628-2.34q1.116-1.296,1.224-1.296q0.252,0,0.252,0.27t-0.324,0.63l-1.152,1.296q-0.972,1.008-2.16,1.944q-2.844,2.124-4.68,2.124z M239.60888,48.068q-0.396,0-0.72-0.108q-2.304-0.648-2.304-2.592q0-2.52,3.168-5.832t5.688-3.312q0.828,0,1.35,0.45t0.522,1.224t-0.468,1.62t-1.404,0.846t-0.936-0.576q0-0.396,0.486-1.206t0.486-0.864t-0.108-0.054q-1.008,0.108-2.754,1.44t-2.394,2.232l-1.404,2.052q-0.36,0.576-0.522,1.368t-0.162,1.188t0.45,0.9t1.278,0.504q1.8,0,4.464-2.106t4.104-4.014q0.18-0.216,0.432-0.216t0.252,0.144t-0.18,0.36q-1.98,2.628-4.734,4.59t-4.59,1.962z M250.487,48.068q-0.396,0-0.72-0.108q-2.304-0.648-2.304-2.592q0-2.52,3.168-5.832t5.688-3.312q0.828,0,1.35,0.45t0.522,1.098q0,2.016-3.042,3.852t-4.95,1.836q-0.288,0-0.504-0.072q-0.54,0.972-0.54,2.052q0,1.872,1.782,1.872t4.626-2.412q2.196-1.764,3.744-3.744q0.324-0.432,0.558-0.432t0.234,0.216t-0.288,0.612q-1.944,2.556-4.68,4.536t-4.644,1.98z M257.291,37.7q0-0.432-0.918-0.432t-2.61,1.404q-2.268,1.872-3.528,3.924q0.216,0.072,0.468,0.072q1.368,0,3.654-1.458t2.862-3.186q0.072-0.18,0.072-0.324z"/></svg>
